# xmcd
# 
# Track frame offsets:
#     150
#     26132
#     45264
#     57804
#     78019
#     105566
#     139824
#     147452
#     170760
#     198096
#     216036
#     236585
# 
# Disc length: 3627
# 
# Revision: 65539
# Processed by: cddbd v1.5.2PL0 Copyright (c) Steve Scherf et al.
# Submitted via: fre:ac v1.0.31
# 
DISCID=9f0e290c
DTITLE=Zac Brown Band - Pass The Jar Live From The Fabulous Fox Theatre In Atlanta Disc 2
DYEAR=2010
DGENRE=Country
TTITLE0=Zac Brown Band Feat. Kid Rock - Can't You See
TTITLE1=Zac Brown Band - Highway 20 Ride
TTITLE2=Zac Brown Band - Whiskey's Gone
TTITLE3=Zac Brown Band Feat. Little Big Town - Colder Weather
TTITLE4=Zac Brown Band Feat. Angie Aparo - Junkyard
TTITLE5=Zac Brown Band Feat. Joey and Rory - Free - Into The Mystic
TTITLE6=Zac Brown Band - America The Beautiful
TTITLE7=Zac Brown Band - Chicken Fried
TTITLE8=Zac Brown Band - I Shall Be Released
TTITLE9=Zac Brown Band Feat. Sonia Leigh - Bar
TTITLE10=Zac Brown Band Feat. Shawn Mullins - Toes
TTITLE11=Zac Brown Band Feat. Massif - We're Gonna Make This Day
EXTD=
EXTT0=
EXTT1=
EXTT2=
EXTT3=
EXTT4=
EXTT5=
EXTT6=
EXTT7=
EXTT8=
EXTT9=
EXTT10=
EXTT11=
PLAYORDER=
